# xmcd
#
# Track frame offsets: 
#        150
#        14810
#        24725
#        37490
#        49855
#        60985
#        81965
#        105195
#        114095
#        126532
#        138587
#        156067
#        172257
#        182352
#        195237
#        206035
#        216927
#        239220
#        249770
#        264927
#        281332
#        292167
#        308915
#        320482
#        333647
#
# Disc length: 4658 seconds
#
# Revision: 0
# Processed by: cddbd v1.5.2PL0 Copyright (c) Steve Scherf et al.
# Submitted via: ExactAudioCopyFreeDBPlugin 1.0
#
DISCID=7b123019
DTITLE=Various Artist - Music Forever v4
DYEAR=1900
DGENRE=Pop/Funk
TTITLE0=Louis Amstrong - We have all the time in the world
TTITLE1=The Beach Boys - I get around
TTITLE2=Ben E. King - Don't play that song
TTITLE3=Crispian St. Peters - You were on my mind
TTITLE4=Chubby Checker - Limbo rock
TTITLE5=Trini Lopez - Lambda
TTITLE6=Mary Hopkins - Those were the days
TTITLE7=The Newbeats - Bread and the butter
TTITLE8=Nilsson - Everybody talkin'
TTITLE9=Nina Simone - To love somebody
TTITLE10=Ray Charles - Ruby
TTITLE11=The Four Seasons - December 1963
TTITLE12=The Kinks - You really got me
TTITLE13=Tommy Roe - Dizzy
TTITLE14=The Trashmen - Surfin' bird
TTITLE15=Carole King - Ut might as well rain until September
TTITLE16=Ike and Tina Turner - Proud Mary
TTITLE17=Paul Anka - Love me worm and tender
TTITLE18=Peggy Lee - Fever
TTITLE19=Frank Sinatra - Night and day
TTITLE20=Len Barry - 1-2-3
TTITLE21=The Byrds - Turn! Turn! Turn!
TTITLE22=Manfred Mann - Pretty Flamingo
TTITLE23=The Spencer Davis Group - Gimmy some loving'
TTITLE24=Jimmy Hendrix - Hey Joe
EXTD=
EXTT0=
EXTT1=
EXTT2=
EXTT3=
EXTT4=
EXTT5=
EXTT6=
EXTT7=
EXTT8=
EXTT9=
EXTT10=
EXTT11=
EXTT12=
EXTT13=
EXTT14=
EXTT15=
EXTT16=
EXTT17=
EXTT18=
EXTT19=
EXTT20=
EXTT21=
EXTT22=
EXTT23=
EXTT24=
PLAYORDER=
